<svg width="16" height="16" viewBox="0 0 16 16" fill="none" xmlns="http://www.w3.org/2000/svg">
<g clip-path="url(#clip0_0_265)">
<path d="M8.35844 4.63596C8.63972 4.1662 9.08484 3.49388 9.64708 2.84876H9.64772C10.1239 2.30124 11.0564 1.59852 11.0564 1.59852C11.1965 1.4926 11.1815 1.34508 11.0221 1.27084L9.89508 0.74412C9.73572 0.66956 9.51908 0.72396 9.41348 0.86444C9.41348 0.86444 8.57988 2.06028 7.59876 4.60588C4.56516 3.23372 1.68164 5.15564 1.68164 8.49772C1.68164 11.9886 4.3674 17.2913 7.9994 15.6907C11.8247 17.346 14.3191 11.9889 14.3191 8.49772C14.3191 5.12684 11.7271 3.15052 8.35844 4.63596Z" fill="white"/>
<path d="M7.67907 3.50542C7.85443 3.4907 8.00931 3.3355 8.02339 3.16046C8.02339 3.16046 8.13603 1.79534 7.18467 0.843016C6.23043 -0.109624 4.86787 0.00397608 4.86787 0.00397608C4.69251 0.0186961 4.53763 0.173896 4.52323 0.348936C4.52323 0.348936 4.40867 1.7147 5.36131 2.66734C6.31331 3.61902 7.67907 3.50542 7.67907 3.50542Z" fill="white"/>
</g>
<defs>
<clipPath id="clip0_0_265">
<rect width="16" height="16.0003" fill="white"/>
</clipPath>
</defs>
</svg>
