<svg width="24" height="20" viewBox="0 0 24 20" fill="none" xmlns="http://www.w3.org/2000/svg">
<path d="M23.5 7.99992H19.263L13.9121 0.216703C13.7559 -0.0108282 13.4448 -0.0679688 13.2168 0.0877968C12.9893 0.244547 12.9317 0.555562 13.0879 0.783094L18.0495 7.99987H5.95055L10.9121 0.783141C11.0684 0.555609 11.0108 0.244547 10.7832 0.0878437C10.5567 -0.0679219 10.2451 -0.0107813 10.0879 0.21675L4.73695 7.99992H0.500016C0.223641 7.99992 0 8.22356 0 8.49994C0 8.77631 0.223641 8.99995 0.500016 8.99995H1.13438L4.19095 18.6064C4.45659 19.4399 5.2222 20 6.0967 20H17.9033C18.7778 20 19.5435 19.4399 19.8091 18.6059L22.8656 8.99995H23.5C23.7764 8.99995 24 8.77631 24 8.49994C24 8.22356 23.7764 7.99992 23.5 7.99992ZM18.8559 18.3027C18.7231 18.7197 18.3403 18.9999 17.9033 18.9999H6.0967C5.65969 18.9999 5.27686 18.7197 5.14406 18.3031L2.18386 8.99991H21.8162L18.8559 18.3027Z" fill="white"/>
</svg>
