<svg width="24" height="24" viewBox="0 0 24 24" fill="none" xmlns="http://www.w3.org/2000/svg">
<g clip-path="url(#clip0_345_67)">
<path fill-rule="evenodd" clip-rule="evenodd" d="M22.0034 3.22271L23.0788 3.77893C23.6457 4.07043 24.0014 4.65491 23.9999 5.29232V19.3107C23.9999 19.9054 23.6898 20.4572 23.1817 20.7665C22.6736 21.0756 22.0412 21.0976 21.5128 20.8241C20.4222 20.2682 19.2396 19.9675 18.0495 19.9222C17.7486 19.9107 17.4999 19.6708 17.4999 19.3697C17.4999 19.0796 17.7314 18.8409 18.0214 18.8498C19.3892 18.8919 20.7501 19.2324 22.0034 19.8715C22.1994 19.9738 22.4347 19.9663 22.6238 19.8516C22.813 19.7369 22.9285 19.5319 22.9285 19.3107V5.29232C22.9291 5.05565 22.7969 4.83885 22.5866 4.73066L21.5131 4.17528C19.1371 2.96427 16.3246 2.96469 13.9488 4.17632L12.5357 4.90749V20.3501L12.9818 20.1193C13.245 19.9831 13.5688 20.0865 13.7043 20.3501C13.8393 20.6127 13.7363 20.9351 13.474 21.0708L12.2458 21.7061C12.2425 21.7077 12.2392 21.7092 12.2357 21.7106C12.2326 21.7119 12.2295 21.7132 12.2264 21.7147C12.2178 21.7187 12.2092 21.7226 12.2006 21.7262C12.1872 21.7314 12.174 21.736 12.1604 21.7402C12.1519 21.7429 12.1435 21.7459 12.1349 21.748C12.1199 21.7519 12.1048 21.7549 12.0897 21.7574C12.0868 21.7579 12.0839 21.7584 12.0809 21.759C12.0765 21.7599 12.0721 21.7607 12.0677 21.7614C12.0225 21.7674 11.9767 21.7674 11.9315 21.7614C11.9242 21.7603 11.9171 21.7586 11.9097 21.7574C11.8945 21.7549 11.8794 21.7519 11.8643 21.748C11.8568 21.7459 11.8495 21.7436 11.842 21.7412L11.8388 21.7402C11.8256 21.736 11.812 21.7314 11.7988 21.7262C11.7901 21.7226 11.7815 21.7187 11.7729 21.7147C11.7694 21.7128 11.7658 21.7113 11.7621 21.7099C11.7592 21.7087 11.7563 21.7075 11.7534 21.7061L10.0488 20.8241C7.67279 19.6131 4.86029 19.6135 2.48453 20.8253C1.95635 21.0976 1.32437 21.075 0.816907 20.7657C0.309443 20.4564 -5.77205e-05 19.905 -5.77205e-05 19.3107V5.29232C-0.0013133 4.65491 0.354225 4.07064 0.92091 3.77893L1.99443 3.22355C4.67803 1.85454 7.85506 1.85413 10.5391 3.22271L11.9999 3.97836L13.4587 3.22375C16.1423 1.85454 19.3193 1.85413 22.0034 3.22271ZM1.99443 19.8725C3.31781 19.1966 4.78266 18.8446 6.26843 18.8453C7.75315 18.8444 9.21674 19.1962 10.5391 19.8715L11.4642 20.3499V4.90749L10.049 4.17528C7.673 2.96427 4.8605 2.96469 2.48474 4.17632L1.41331 4.73066C1.203 4.83885 1.07074 5.05565 1.07137 5.29232V19.3107C1.07137 19.5314 1.18647 19.7363 1.37501 19.851C1.56356 19.9659 1.79835 19.974 1.99443 19.8725Z" fill="#211901"/>
</g>
<defs>
<clipPath id="clip0_345_67">
<rect width="24" height="24" fill="white"/>
</clipPath>
</defs>
</svg>
