<svg width="20" height="20" viewBox="0 0 20 20" fill="none" xmlns="http://www.w3.org/2000/svg">
<g clip-path="url(#clip0_392_11)">
<path d="M15.0836 18.4091L15.0836 18.4091C13.5547 19.3353 11.7968 19.825 10 19.825C7.37536 19.825 4.90858 18.8032 3.05267 16.9473C1.19675 15.0914 0.175 12.6246 0.175 10C0.175 7.37536 1.19675 4.90858 3.05267 3.05267C4.90858 1.19675 7.37536 0.175 10 0.175C12.6246 0.175 15.0914 1.19675 16.9473 3.05267C18.8032 4.90858 19.825 7.37536 19.825 10C19.825 11.9389 19.2497 13.8248 18.1602 15.4542L18.1602 15.4542C17.9742 15.7326 17.5977 15.8074 17.3193 15.6213C17.041 15.4351 16.9662 15.0586 17.1523 14.7804L17.1523 14.7803C18.1073 13.3518 18.6125 11.6987 18.6125 10C18.6125 5.25095 14.7491 1.3875 10 1.3875C5.25095 1.3875 1.3875 5.25095 1.3875 10C1.3875 14.7491 5.25095 18.6125 10 18.6125C11.5749 18.6125 13.1157 18.1836 14.4554 17.3721L14.4555 17.3721C14.7417 17.1987 15.1145 17.2901 15.2881 17.5766C15.4615 17.8629 15.37 18.2356 15.0836 18.4091Z" fill="white" stroke="#FF8B19" stroke-width="0.35"/>
<path d="M11.5348 7.33639L11.5348 7.33634C11.1657 7.00917 10.6142 6.82496 10.025 6.82496C9.50358 6.82496 9.02005 6.97168 8.66483 7.2085C8.31067 7.4446 8.07502 7.77747 8.07502 8.14996C8.07502 8.52246 8.31067 8.85533 8.66483 9.09143C9.02005 9.32825 9.50358 9.47496 10.025 9.47496C11.7226 9.47496 13.075 10.5774 13.075 11.9C13.075 13.0587 12.04 14.0472 10.6379 14.2759L10.575 14.2862V14.35V15.025C10.575 15.3285 10.3286 15.575 10.025 15.575C9.72145 15.575 9.47502 15.3285 9.47502 15.025V14.3487V14.285L9.41217 14.2747C8.78397 14.1716 8.21023 13.9156 7.78493 13.5365L7.78485 13.5364C7.55689 13.3338 7.53629 12.9863 7.73846 12.7599L7.7387 12.7597C7.94115 12.5308 8.28855 12.5111 8.51506 12.7134L8.51527 12.7136C8.88432 13.0408 9.43586 13.225 10.025 13.225C10.5465 13.225 11.03 13.0782 11.3852 12.8414C11.7394 12.6053 11.975 12.2725 11.975 11.9C11.975 11.5275 11.7394 11.1946 11.3852 10.9585C11.03 10.7217 10.5465 10.575 10.025 10.575C8.32745 10.575 6.97502 9.47253 6.97502 8.14996C6.97502 6.99123 8.01009 6.00273 9.4121 5.77398L9.47502 5.76372V5.69996V5.02496C9.47502 4.72138 9.72145 4.47496 10.025 4.47496C10.3286 4.47496 10.575 4.72138 10.575 5.02496V5.70246V5.76628L10.638 5.7765C11.266 5.8783 11.8398 6.13553 12.2652 6.51353C12.4932 6.71616 12.5138 7.06367 12.3116 7.29L12.3115 7.29012C12.1078 7.51907 11.7615 7.53774 11.5348 7.33639Z" fill="white" stroke="#FF8B19" stroke-width="0.15"/>
<path d="M12.3138 7.28746C12.5133 7.06114 12.4923 6.71541 12.2652 6.51354L12.2652 6.51353C12.4923 6.7154 12.5136 7.06108 12.3138 7.28746ZM12.3138 7.28746C12.3131 7.28831 12.3123 7.28916 12.3116 7.29C12.3123 7.28916 12.3131 7.28831 12.3138 7.28746ZM8.51261 12.7112C8.28616 12.5117 7.94047 12.5317 7.73879 12.7596C7.94052 12.5316 8.28608 12.5113 8.51261 12.7112ZM8.51261 12.7112C8.51343 12.7119 8.51425 12.7127 8.51506 12.7134C8.51425 12.7127 8.51343 12.7119 8.51261 12.7112ZM7.73634 12.7623C7.54097 12.9841 7.55702 13.321 7.77173 13.5244C7.55695 13.321 7.54036 12.9843 7.73634 12.7623ZM7.73634 12.7623C7.73705 12.7615 7.73775 12.7607 7.73846 12.7599C7.73775 12.7607 7.73705 12.7615 7.73634 12.7623Z" fill="white" stroke="#FF8B19" stroke-width="0.15"/>
</g>
<defs>
<clipPath id="clip0_392_11">
<rect width="20" height="20" fill="white"/>
</clipPath>
</defs>
</svg>
