<svg width="13" height="13" viewBox="0 0 13 13" fill="none" xmlns="http://www.w3.org/2000/svg">
<g clip-path="url(#clip0_392_4)">
<path d="M0.185203 12.8168L0.149977 12.8522L0.185199 12.8167C0.0677992 12.7 0.0226321 12.5289 0.0670179 12.3694L1.20878 8.26739C1.22994 8.19141 1.27034 8.12219 1.3261 8.06644L8.59531 0.797201C9.07721 0.315295 9.71769 0.05 10.3992 0.05C11.0807 0.05 11.7212 0.315294 12.2031 0.797226C12.6849 1.27911 12.9502 1.91956 12.9502 2.60107C12.9502 3.28255 12.685 3.92298 12.2031 4.40488C12.203 4.4049 12.203 4.40492 12.203 4.40493L6.71919 9.87382C6.54019 10.0523 6.25028 10.052 6.07176 9.87293L6.03635 9.90823L6.07175 9.87293C5.89321 9.6939 5.8936 9.40404 6.07262 9.22549L10.6854 4.62524L10.7209 4.58989L10.6855 4.55448L8.44456 2.31356L8.40921 2.2782L8.37385 2.31356L2.34827 8.33916L2.31297 8.37446L2.34822 8.40982L4.9343 11.0037C5.04883 11.1186 5.09401 11.2855 5.05309 11.4425C5.01216 11.5994 4.8912 11.723 4.73518 11.7674L0.633152 12.9326C0.591855 12.9443 0.549785 12.95 0.508101 12.95C0.388735 12.95 0.272181 12.9033 0.185203 12.8168ZM3.65479 11.1224L3.73653 11.0992L3.67654 11.039L1.94787 9.3051L1.88729 9.24434L1.86429 9.32699L1.19182 11.743L1.16792 11.8288L1.25365 11.8045L3.65479 11.1224ZM11.556 3.75703L11.5561 3.75699C11.8644 3.44865 12.0346 3.03781 12.0346 2.60107C12.0346 2.16432 11.8644 1.75347 11.5556 1.44467C11.2468 1.13581 10.8359 0.965625 10.3992 0.965625C9.96245 0.965625 9.5516 1.13581 9.24279 1.44464L9.09202 1.59541L9.05667 1.63076L9.09202 1.66612L11.3339 3.90803L11.3692 3.94334L11.4046 3.90808L11.556 3.75703Z" fill="#C4C3C3" stroke="white" stroke-width="0.1"/>
</g>
<defs>
<clipPath id="clip0_392_4">
<rect width="13" height="13" fill="white"/>
</clipPath>
</defs>
</svg>
