<svg width="20" height="18" viewBox="0 0 20 18" fill="none" xmlns="http://www.w3.org/2000/svg">
<path fill-rule="evenodd" clip-rule="evenodd" d="M9.22682 17.5968C9.44075 17.7841 9.71525 17.8873 9.99998 17.8873C10.2846 17.8873 10.5592 17.7841 10.773 17.5971C11.5828 16.8889 12.363 16.2239 13.0514 15.6374C15.066 13.9205 16.8058 12.4378 18.0165 10.9769C19.3698 9.34407 20 7.79576 20 6.10433C20 4.46096 19.4366 2.94485 18.4135 1.83508C17.5103 0.855504 16.3138 0.259832 14.9978 0.123734C14.676 0.0904566 14.413 0.356012 14.413 0.679532C14.413 1.00305 14.6764 1.26109 14.9971 1.30347C15.9815 1.43357 16.8734 1.89288 17.5522 2.62914C18.3752 3.52193 18.8285 4.75606 18.8285 6.10433C18.8285 7.5269 18.2998 8.79918 17.1145 10.2295C15.9698 11.6109 14.2677 13.0615 12.2969 14.7413L12.2915 14.7458C11.6003 15.3347 10.8171 16.0022 9.9983 16.7153C9.1844 16.0036 8.40239 15.3371 7.71254 14.7492L7.70888 14.7461L7.7077 14.7451C5.73494 13.0639 4.03114 11.6119 2.88558 10.2295C1.70013 8.79918 1.17141 7.5269 1.17141 6.10433C1.17141 4.75606 1.62475 3.52193 2.44781 2.62914C3.25881 1.74963 4.37362 1.26532 5.58715 1.26532C6.47597 1.26532 7.29216 1.54791 8.01283 2.10516C8.65523 2.60198 9.10261 3.23003 9.36476 3.66949C9.49965 3.89547 9.73707 4.03036 9.99998 4.03036C10.2629 4.03036 10.5003 3.89547 10.6352 3.66949C10.8328 3.33835 11.1356 2.90013 11.5476 2.49166C11.7773 2.26393 11.8268 1.89776 11.6289 1.64188C11.431 1.38596 11.061 1.33717 10.8257 1.5592C10.5288 1.83935 10.253 2.1554 9.99998 2.50509C9.62492 1.98644 9.1992 1.5418 8.72954 1.17849C7.7989 0.458738 6.74162 0.0937481 5.58715 0.0937481C4.0425 0.0937481 2.62191 0.712186 1.58661 1.83508C0.563506 2.94485 0 4.46096 0 6.10433C0 7.79576 0.630339 9.34407 1.98364 10.9771C3.19427 12.4378 4.93422 13.9206 6.94914 15.6377L6.95265 15.6407C7.63991 16.2264 8.41887 16.8903 9.22682 17.5968Z" fill="#FF8B19"/>
</svg>
