<svg width="24" height="24" viewBox="0 0 24 24" fill="none" xmlns="http://www.w3.org/2000/svg">
<g clip-path="url(#clip0_345_63)">
<path fill-rule="evenodd" clip-rule="evenodd" d="M11.3284 1.06188C11.7031 0.712772 12.2969 0.712771 12.6716 1.06188L14.2881 2.55494C14.5294 2.77783 14.5362 3.15695 14.3029 3.38823C14.0837 3.60555 13.7322 3.61177 13.5055 3.40233L12 2.01187L2.28241 10.9907H3.13058C3.65863 10.9907 4.10183 11.4025 4.10183 11.9288V22.062H9.10061V16.3573C9.10061 15.831 9.54381 15.4192 10.0719 15.4192H13.9281C14.4562 15.4192 14.8994 15.831 14.8994 16.3573V22.062H19.8982V11.9288C19.8982 11.4025 20.3414 10.9907 20.8694 10.9907H21.7213L16.9411 6.57563C16.7001 6.353 16.6934 5.97431 16.9264 5.74329C17.1454 5.52617 17.4965 5.51999 17.723 5.72927L22.9006 10.5132C23.2902 10.8737 23.3012 11.4724 22.924 11.8458C22.7403 12.0277 22.4892 12.1288 22.2288 12.1288H21.0694V22.262C21.0694 22.7883 20.6262 23.2001 20.0982 23.2001H14.6994C14.1713 23.2001 13.7281 22.7883 13.7281 22.262V16.5573H10.2719V22.262C10.2719 22.7883 9.82866 23.2001 9.30061 23.2001H3.90183C3.37378 23.2001 2.93058 22.7883 2.93058 22.262V12.1288H1.77124C1.24325 12.1288 0.799988 11.717 0.799988 11.1907C0.799988 10.9332 0.90943 10.6887 1.09991 10.5128L11.3284 1.06188Z" fill="#ACC800"/>
</g>
<defs>
<clipPath id="clip0_345_63">
<rect width="24" height="24" fill="white"/>
</clipPath>
</defs>
</svg>
