<svg width="24" height="24" viewBox="0 0 24 24" fill="none" xmlns="http://www.w3.org/2000/svg">
<path fill-rule="evenodd" clip-rule="evenodd" d="M14.8275 18.9601C17.1874 16.9488 19.2352 15.2035 20.6144 13.5392C22.047 11.8104 22.6942 10.2619 22.6942 8.52517C22.6942 6.88513 22.1427 5.37907 21.1361 4.28717C20.3056 3.38636 19.2139 2.82417 18.0096 2.66501C17.6662 2.61962 17.3955 2.34557 17.3955 2.01542C17.3955 1.67927 17.6668 1.41481 17.987 1.44793C19.5422 1.60875 20.9554 2.31235 22.0227 3.46986C23.2318 4.7814 23.8999 6.57582 23.8999 8.52517C23.8999 10.5262 23.1557 12.3623 21.5427 14.3085C20.0967 16.0534 18.0166 17.8265 15.5968 19.8887C14.7707 20.5926 13.834 21.3909 12.8617 22.2412C12.6234 22.4497 12.3173 22.5647 12 22.5647C11.6825 22.5647 11.3764 22.4497 11.138 22.2408C10.1679 21.3926 9.23268 20.5955 8.40802 19.8928L8.40381 19.8891C5.98365 17.8267 3.90335 16.0534 2.45734 14.3086C0.844369 12.3623 0.0999756 10.5262 0.0999756 8.52517C0.0999756 6.57582 0.768304 4.7814 1.97743 3.46985C3.20062 2.14318 4.87856 1.41248 6.70455 1.41248C8.06733 1.41248 9.31463 1.84283 10.4142 2.69327C10.9697 3.12295 11.474 3.64945 11.9189 4.26468L11.9999 4.37672L12.081 4.2647C12.3811 3.84986 12.708 3.47539 13.0595 3.14374C13.2941 2.92237 13.6701 2.96571 13.8755 3.2314C14.0777 3.49283 14.0318 3.87592 13.7867 4.11895C13.2846 4.61671 12.9164 5.14992 12.6764 5.55211C12.5325 5.79309 12.2802 5.9364 12 5.9364C11.7197 5.9364 11.4674 5.79309 11.3236 5.55211C11.0055 5.01887 10.461 4.25374 9.67654 3.64706C8.7947 2.96518 7.79387 2.61836 6.70455 2.61836C5.22085 2.61836 3.85627 3.21089 2.86382 4.28717C1.8572 5.37907 1.30567 6.88513 1.30567 8.52517C1.30567 10.2619 1.95288 11.8104 3.38568 13.5392C4.76588 15.2047 6.81579 16.9517 9.17801 18.9648L9.18436 18.9702L9.18572 18.9714L9.1906 18.9755C10.0184 19.6809 10.9562 20.4802 11.9321 21.3336L11.9978 21.391L12.0636 21.3337C13.0457 20.4785 13.9852 19.6777 14.8147 18.9711L14.8211 18.9656L14.8275 18.9601Z" fill="#211901"/>
</svg>
