<svg width="16" height="16" viewBox="0 0 16 16" fill="none" xmlns="http://www.w3.org/2000/svg">
<g clip-path="url(#clip0_0_278)">
<path d="M11.2013 10.962C11.3749 10.8289 11.6306 10.8215 11.8158 10.9416C12.3583 11.2932 13.1345 11.123 13.427 10.5749C13.5175 10.4052 13.7213 10.3083 13.9312 10.3245C14.5797 10.3747 15.1494 9.8976 15.1042 9.29841C15.0904 9.11551 15.2081 8.94719 15.3928 8.86673C15.7523 8.71015 16 8.38093 16 7.99996C16 7.619 15.7523 7.28977 15.3927 7.13316C15.208 7.05271 15.0903 6.88439 15.1041 6.70148C15.1449 6.16107 14.6865 5.72578 14.136 5.67668C14.0663 5.67046 13.9979 5.6702 13.9312 5.67536C13.7213 5.69158 13.5175 5.59465 13.4269 5.42497C13.1344 4.87685 12.3582 4.70665 11.8157 5.05833C11.6305 5.17839 11.3749 5.17104 11.2012 5.03794C10.6892 4.64565 9.90117 4.76359 9.56114 5.28675C9.45224 5.4543 9.22882 5.53649 9.01785 5.49068C8.35927 5.34765 7.73308 5.77378 7.68363 6.3522C7.67379 6.46716 7.6866 6.57829 7.71847 6.68242C7.7765 6.872 7.68324 7.07348 7.49498 7.17558C7.18311 7.34471 6.97476 7.65054 6.97476 7.99993C6.97476 8.34932 7.18308 8.65515 7.49495 8.82428C7.68321 8.92638 7.77647 9.12786 7.71844 9.31744C7.68656 9.42154 7.67376 9.53267 7.6836 9.64767C7.73302 10.226 8.35908 10.6522 9.01782 10.5092C9.22879 10.4633 9.45221 10.5456 9.56111 10.7131C9.90172 11.2371 10.69 11.3537 11.2013 10.962Z" fill="#ACC800"/>
<path d="M1.53377 1.72902C1.49006 1.92408 1.30929 2.07915 1.09561 2.10986C0.980932 2.12634 0.865222 2.16018 0.752448 2.21298C0.152417 2.49385 -0.0764858 3.19769 0.292836 3.68047C0.413256 3.83788 0.395997 4.05927 0.255127 4.22069C0.0217073 4.48811 -0.067034 4.8475 0.0546434 5.17495C0.176321 5.5024 0.478062 5.7163 0.829288 5.76591C1.04129 5.79585 1.19887 5.95214 1.21048 6.15007C1.24629 6.75998 1.88203 7.1391 2.51625 6.95985C2.63609 6.92597 2.74573 6.87588 2.84328 6.8133C3.02506 6.69669 3.26309 6.69572 3.42348 6.81472C3.92667 7.18804 4.70547 7.01939 5.04725 6.47527C5.16367 6.28991 5.4007 6.19375 5.61608 6.24162C6.24486 6.38133 6.91486 5.95372 6.99847 5.33543C7.02424 5.14479 7.1815 4.98279 7.38389 4.92472C8.01495 4.74366 8.37495 4.09495 8.12585 3.55343C8.04921 3.38682 8.10092 3.18798 8.24598 3.04808C8.52843 2.77576 8.64595 2.38073 8.51327 2.02366C8.3806 1.6666 8.03379 1.44454 7.64224 1.42331C7.44115 1.41241 7.27221 1.29573 7.22144 1.1195C7.05615 0.545505 6.35947 0.29186 5.76476 0.567343C5.5737 0.655859 5.34892 0.63615 5.20499 0.508763C4.73838 0.0958281 3.95209 0.210183 3.56725 0.72773C3.43548 0.904923 3.19335 0.987278 2.98422 0.923213C2.36886 0.734569 1.67051 1.11879 1.53377 1.72902Z" fill="#ACC800"/>
<path d="M6.97864 0.724646C6.93096 0.680034 6.87845 0.640356 6.8219 0.606163C6.86319 0.656195 6.9168 0.696388 6.97864 0.724646Z" fill="white"/>
<path d="M2.98406 15.0768C3.19316 15.0127 3.43532 15.095 3.5671 15.2722C3.95093 15.7884 4.73706 15.9052 5.20483 15.4912C5.3488 15.3638 5.57357 15.3441 5.76464 15.4326C6.3549 15.706 7.05509 15.4576 7.22131 14.8804C7.27209 14.7042 7.44099 14.5875 7.64212 14.5766C8.03367 14.5554 8.38047 14.3333 8.51315 13.9763C8.64583 13.6192 8.52831 13.2242 8.24586 12.9519C8.10076 12.812 8.04909 12.6131 8.12573 12.4465C8.37983 11.8941 8.00264 11.2528 7.38377 11.0752C7.18141 11.0172 7.02415 10.8551 6.99835 10.6645C6.91473 10.0462 6.2447 9.61862 5.61596 9.75832C5.40058 9.8062 5.16354 9.71003 5.04713 9.52468C4.70584 8.98129 3.92722 8.81139 3.42335 9.18523C3.26294 9.30423 3.0249 9.30326 2.84313 9.18665C2.27471 8.822 1.53994 9.00436 1.29265 9.52823C1.24339 9.63255 1.21668 9.74119 1.21033 9.8499C1.19871 10.0478 1.04113 10.2041 0.829134 10.2341C0.477941 10.2837 0.176168 10.4976 0.054491 10.825C-0.0671865 11.1525 0.0215548 11.5119 0.254974 11.7793C0.395877 11.9407 0.413103 12.1621 0.292683 12.3195C0.226555 12.406 0.175845 12.5056 0.145007 12.6168C-0.0100901 13.1762 0.428263 13.7942 1.09546 13.8901C1.30913 13.9208 1.48991 14.0759 1.53362 14.271C1.67049 14.8818 2.36923 15.2652 2.98406 15.0768Z" fill="#ACC800"/>
<path d="M12.1572 6.69955C12.2664 6.6079 12.4292 6.62213 12.5208 6.73129C12.593 6.81729 12.6881 6.87119 12.7817 6.8792C12.8748 6.88716 12.9711 6.84965 13.068 6.76774C13.4742 6.42432 13.9657 6.60936 14.1688 6.75516C14.2846 6.83826 14.311 6.99945 14.2279 7.11529C14.1452 7.23055 13.985 7.25729 13.8693 7.17555C13.8408 7.15587 13.5965 6.99678 13.4013 7.16187C13.1453 7.37826 12.8992 7.40723 12.7377 7.39346C12.5084 7.37384 12.2853 7.25345 12.1255 7.06313C12.0342 6.95449 12.0476 6.79161 12.1572 6.69955Z" fill="white"/>
<path d="M10.8842 8.82989C10.9933 8.73828 11.1561 8.75251 11.2478 8.86167C11.3199 8.94767 11.415 9.00157 11.5086 9.00957C11.6017 9.01754 11.6981 8.98002 11.795 8.89812C12.2011 8.5547 12.6926 8.73973 12.8957 8.88554C13.0115 8.96863 13.038 9.12983 12.9548 9.24566C12.8721 9.36092 12.7119 9.38766 12.5963 9.30592C12.5677 9.28624 12.3235 9.12715 12.1282 9.29224C11.8722 9.50866 11.6261 9.53763 11.4646 9.52382C11.2353 9.50421 11.0122 9.38379 10.8524 9.19347C10.7602 9.08357 10.7757 8.92089 10.8842 8.82989Z" fill="white"/>
<path d="M4.40564 2.09167C4.48032 1.97029 4.63929 1.93241 4.76067 2.00712C4.85616 2.06587 4.96325 2.08699 5.05454 2.06509C5.14551 2.04325 5.22522 1.97719 5.29145 1.86874C5.56864 1.41464 6.09325 1.43506 6.33196 1.50928C6.46805 1.55164 6.54402 1.69625 6.50173 1.83235C6.4596 1.96783 6.31609 2.04377 6.18051 2.00267C6.14715 1.99303 5.86531 1.91922 5.73199 2.13764C5.55728 2.4239 5.33267 2.52909 5.17503 2.56696C4.95129 2.62067 4.70171 2.57683 4.49022 2.4467C4.36845 2.3718 4.33119 2.21267 4.40564 2.09167Z" fill="white"/>
<path d="M3.5907 4.86813C3.66538 4.74674 3.82434 4.70887 3.94573 4.78358C4.04122 4.84232 4.14831 4.86345 4.2396 4.84155C4.3306 4.81971 4.41031 4.75365 4.47654 4.64519C4.7537 4.19113 5.27831 4.21155 5.51702 4.28575C5.65315 4.32807 5.72896 4.47271 5.68686 4.60881C5.6447 4.74429 5.50122 4.82023 5.36564 4.77916C5.33241 4.76955 5.05044 4.69568 4.91709 4.9141C4.74235 5.20038 4.51773 5.30558 4.36009 5.34342C4.13635 5.39712 3.88676 5.35329 3.67528 5.22316C3.55351 5.14826 3.51622 4.98913 3.5907 4.86813Z" fill="white"/>
<path d="M1.58313 3.74278C1.6578 3.62139 1.81677 3.58352 1.93816 3.65823C2.03364 3.71697 2.14074 3.7381 2.232 3.7162C2.323 3.69436 2.40271 3.6283 2.46893 3.51985C2.74612 3.06578 3.27074 3.0862 3.50945 3.16039C3.64554 3.20272 3.72151 3.34736 3.67922 3.48346C3.63709 3.61894 3.49357 3.69488 3.35803 3.65381C3.32464 3.64414 3.0428 3.57036 2.90948 3.78878C2.73474 4.07507 2.51012 4.18023 2.35248 4.2181C2.12874 4.27181 1.87916 4.22797 1.66767 4.09784C1.54693 4.02355 1.50809 3.86472 1.58313 3.74278Z" fill="white"/>
<path d="M4.33473 13.506C4.54624 13.3759 4.79585 13.332 5.01956 13.3858C5.1772 13.4236 5.40178 13.5288 5.57652 13.815C5.71026 14.0341 5.99349 13.9592 6.02536 13.9499C6.16145 13.9076 6.305 13.9839 6.34732 14.12C6.38952 14.2561 6.31255 14.4011 6.17645 14.4434C5.93778 14.5176 5.41314 14.538 5.13598 14.084C5.06975 13.9756 4.99008 13.9095 4.89904 13.8877C4.80779 13.8657 4.70066 13.8869 4.60517 13.9456C4.48376 14.0203 4.32482 13.9824 4.25015 13.861C4.17511 13.7391 4.21392 13.5803 4.33473 13.506Z" fill="white"/>
<path d="M3.86691 10.9508C4.07842 10.8206 4.328 10.7768 4.55171 10.8305C4.70935 10.8683 4.93393 10.9735 5.10868 11.2598C5.14497 11.3193 5.21168 11.3996 5.37151 11.4116C5.46984 11.4189 5.55458 11.3956 5.55535 11.3954C5.69145 11.353 5.83609 11.429 5.87841 11.5651C5.92077 11.7013 5.84474 11.8459 5.70864 11.8882C5.46996 11.9624 4.94532 11.9828 4.66813 11.5287C4.60194 11.4203 4.52226 11.3542 4.43123 11.3324C4.33994 11.3105 4.23284 11.3316 4.13736 11.3904C4.01597 11.465 3.85704 11.4272 3.78233 11.3058C3.70717 11.1837 3.74633 11.025 3.86691 10.9508Z" fill="white"/>
<path d="M1.51205 11.8548C1.72357 11.7247 1.97318 11.6809 2.19689 11.7346C2.35453 11.7724 2.57911 11.8776 2.75382 12.1639C2.79011 12.2233 2.85682 12.3037 3.01666 12.3156C3.11498 12.323 3.19972 12.2997 3.20049 12.2994C3.33659 12.2571 3.48123 12.3331 3.52356 12.4692C3.56591 12.6053 3.48988 12.7499 3.35378 12.7923C3.11511 12.8665 2.59047 12.8869 2.31327 12.4328C2.24708 12.3243 2.1674 12.2583 2.07637 12.2364C1.98508 12.2145 1.87799 12.2357 1.7825 12.2944C1.66109 12.3691 1.50215 12.3312 1.42747 12.2098C1.35244 12.088 1.39125 11.9292 1.51205 11.8548Z" fill="white"/>
<path d="M8.89992 7.29908C9.00912 7.20747 9.17189 7.22169 9.2635 7.33085C9.33566 7.41685 9.43076 7.47072 9.52434 7.47876C9.61747 7.48672 9.71382 7.44921 9.81072 7.3673C10.2169 7.02389 10.7083 7.20892 10.9114 7.35472C11.0272 7.43782 11.0537 7.59901 10.9706 7.71485C10.8878 7.83011 10.7277 7.85685 10.612 7.77511C10.5834 7.75543 10.3392 7.59634 10.1439 7.76143C9.88798 7.97785 9.64182 8.00682 9.48034 7.99301C9.25102 7.9734 9.02789 7.85298 8.86815 7.66263C8.77608 7.55298 8.79124 7.39027 8.89992 7.29908Z" fill="white"/>
</g>
<defs>
<clipPath id="clip0_0_278">
<rect width="16" height="16" fill="white" transform="translate(16) rotate(90)"/>
</clipPath>
</defs>
</svg>
