<svg width="25" height="24" viewBox="0 0 25 24" fill="none" xmlns="http://www.w3.org/2000/svg">
<g clip-path="url(#clip0_345_79)">
<path fill-rule="evenodd" clip-rule="evenodd" d="M0.869999 10.1454C0.911635 10.2327 0.972231 10.3111 1.05075 10.3687C1.12997 10.4269 1.22463 10.4614 1.3256 10.462H2.27294V21.6657C2.27294 21.8064 2.32786 21.9419 2.42665 22.0424C2.52556 22.1429 2.66041 22.2 2.80174 22.2H10.3054L10.31 22.2001L10.8388 22.2H22.2004C22.3418 22.2 22.4766 22.1429 22.5755 22.0424C22.6743 21.9419 22.7292 21.8064 22.7292 21.6657V10.462H23.6711C23.7723 10.462 23.8674 10.428 23.9471 10.37C24.0261 10.3126 24.0871 10.2341 24.129 10.1467C24.171 10.0591 24.1943 9.96192 24.1989 9.86391C24.2036 9.76587 24.1896 9.66668 24.1569 9.57489L21.5282 2.1826C21.4915 2.07962 21.4309 1.98487 21.347 1.91449C21.2623 1.84338 21.1566 1.80003 21.0423 1.80005L3.95558 1.80005L3.95433 1.80006C3.84055 1.80077 3.7356 1.84441 3.65145 1.91543C3.56817 1.98571 3.50789 2.0801 3.47141 2.18264L0.842687 9.57488C0.810102 9.66646 0.796092 9.76536 0.800641 9.86318C0.805188 9.96095 0.828301 10.0579 0.869999 10.1454ZM10.8388 21.1314V16.1828H14.165V19.0757C14.165 19.3676 14.3986 19.6099 14.6938 19.6099C14.8351 19.6099 14.97 19.5528 15.0689 19.4523C15.1677 19.3518 15.2226 19.2163 15.2226 19.0757V15.6485C15.2226 15.5079 15.1677 15.3723 15.0689 15.2719C14.97 15.1713 14.8351 15.1142 14.6938 15.1142H10.31C10.1687 15.1142 10.0338 15.1713 9.93492 15.2719C9.83613 15.3723 9.78121 15.5079 9.78121 15.6485V21.1314H3.33053V10.462H21.6716V21.1314H10.8388ZM2.1281 9.19233H22.8699L20.6926 3.06973H4.30539L2.1281 9.19233Z" fill="#211901"/>
</g>
<defs>
<clipPath id="clip0_345_79">
<rect width="24" height="24" fill="white" transform="translate(0.5)"/>
</clipPath>
</defs>
</svg>
