<svg width="25" height="24" viewBox="0 0 25 24" fill="none" xmlns="http://www.w3.org/2000/svg">
<g clip-path="url(#clip0_345_71)">
<path fill-rule="evenodd" clip-rule="evenodd" d="M12.5 13.475C7.23782 13.475 4.38685 15.4558 3.37735 16.3429C2.48553 17.1266 1.97502 18.2603 1.97502 19.4531V21.1875C1.97502 21.9253 2.5747 22.525 3.31252 22.525H21.6875C22.4253 22.525 23.025 21.9253 23.025 21.1875V19.4531C23.025 18.2603 22.5145 17.1266 21.6227 16.3429C20.9347 15.7383 20.0944 15.2167 19.1302 14.7882C18.8588 14.6675 18.7367 14.3498 18.8571 14.0786C18.9776 13.8074 19.2951 13.6852 19.5666 13.8057C20.6421 14.2836 21.5712 14.8667 22.3322 15.5354C23.4552 16.522 24.1 17.9497 24.1 19.4531V21.1875C24.1 22.5175 23.0175 23.6 21.6875 23.6H3.31252C1.98254 23.6 0.900024 22.5175 0.900024 21.1875V19.4531C0.900024 17.9497 1.54488 16.522 2.66779 15.5354C3.60307 14.7135 5.41903 13.4727 8.36019 12.8261L9.19788 12.642L8.51842 12.1186C6.96416 10.9213 5.96252 9.04399 5.96252 6.93752C5.96252 3.33318 8.89568 0.400024 12.5 0.400024C16.1044 0.400024 19.0375 3.33318 19.0375 6.93752C19.0375 10.5419 16.1044 13.475 12.5 13.475ZM12.5 1.47502C9.48767 1.47502 7.03752 3.92517 7.03752 6.93752C7.03752 9.94988 9.48767 12.4 12.5 12.4C15.5124 12.4 17.9625 9.94988 17.9625 6.93752C17.9625 3.92517 15.5124 1.47502 12.5 1.47502Z" fill="#211901"/>
</g>
<defs>
<clipPath id="clip0_345_71">
<rect width="24" height="24" fill="white" transform="translate(0.5)"/>
</clipPath>
</defs>
</svg>
